<svg fill="none" height="64" viewBox="0 0 64 64" width="64" xmlns="http://www.w3.org/2000/svg" xmlns:xlink="http://www.w3.org/1999/xlink"><linearGradient id="paint0_linear_2813_1920" gradientUnits="userSpaceOnUse" x1="78.644" x2="25.425" y1="74.123" y2="11.863"><stop offset=".00265844" stop-color="#ff37df"/><stop offset="1" stop-color="#6e00ff"/></linearGradient><path clip-rule="evenodd" d="m2 14c0-6.62742 5.37258-12 12-12h36c6.6274 0 12 5.37258 12 12v28c0 6.6274-5.3726 12-12 12h-10.0925l-6.4023 7.317c-.3798.434-.9285.683-1.5052.683s-1.1254-.249-1.5052-.683l-6.4023-7.317h-10.0925c-6.62742 0-12-5.3726-12-12zm30 0c.9337 0 1.7432.6461 1.9502 1.5565l1.1066 4.8664c.5118 2.2509 2.2694 4.0085 4.5203 4.5203l4.8664 1.1066c.9104.207 1.5565 1.0165 1.5565 1.9502s-.6461 1.7432-1.5565 1.9502l-4.8664 1.1066c-2.2509.5118-4.0085 2.2694-4.5203 4.5203l-1.1066 4.8664c-.207.9104-1.0165 1.5565-1.9502 1.5565s-1.7432-.6461-1.9502-1.5565l-1.1066-4.8664c-.5118-2.2509-2.2694-4.0085-4.5203-4.5203l-4.8664-1.1066c-.9104-.207-1.5565-1.0165-1.5565-1.9502s.6461-1.7432 1.5565-1.9502l4.8664-1.1066c2.2509-.5118 4.0085-2.2694 4.5203-4.5203l1.1066-4.8664c.207-.9104 1.0165-1.5565 1.9502-1.5565z" fill="url(#paint0_linear_2813_1920)" fill-rule="evenodd"/></svg>